<?xml version="1.0"?>

<svg width="225" height="169" viewBox="0 0 226 169" version="1.1" xmlns="http://www.w3.org/2000/svg" xmlns:xlink="http://www.w3.org/1999/xlink">  <title>Envoy_Logo_Final_PANTONE-REVERSE</title> <desc>Created with Sketch.</desc> <defs> <polygon id="path-1" points="0 0.449 0 87.94 91.22 87.94 91.22 0.449"></polygon> <polygon id="path-3" points="0.695126691 0.484 191.856996 0.484 191.856996 163.037966 0.695126691 163.037966"></polygon> </defs> <g id="Page-1" stroke="none" stroke-width="1" fill="none" fill-rule="evenodd"> <g id="Envoy_Logo_Final_PANTONE-REVERSE"> <polyline id="Fill-6" fill="#953984" points="56.279 81.853 56.601 95.448 70.917 104.324 70.596 90.72 56.279 81.853"></polyline> <g id="Group-10" transform="translate(0.000000, 81.000000)"> <mask id="mask-2" fill="white"> <use xlink:href="#path-1"></use> </mask> <g id="Clip-8"></g> <path d="M91.22,57.357 L90.907,44.042 L78.361,36.268 C78.175,36.152 78.01,36.016 77.829,35.894 L78.146,49.254 L91.22,57.357" id="Fill-7" fill="#953984" mask="url(#mask-2)"></path> <path d="M46.52,75.284 L13.788,55.002 L12.992,20.964 L29.039,14.044 L28.717,0.449 L3.107,11.49 C1.137,12.347 -0.047,14.154 0.001,16.262 L0.962,57.097 C1.01,59.204 2.29,61.267 4.313,62.53 L43.567,86.856 C45.396,87.987 47.602,88.297 49.462,87.709 C49.659,87.647 49.838,87.576 50.017,87.506 L74.105,77.122 L61.04,69.022 L46.52,75.284" id="Fill-9" fill="#953984" mask="url(#mask-2)"></path> </g> <path d="M152.283,81.075 C152.223,78.627 150.736,76.202 148.374,74.744 L100.716,45.207 L99.245,45.842 L99.582,60.134 L137.32,83.514 L138.222,121.754 L152.655,130.698 L153.442,130.358 L152.283,81.075" id="Fill-11" fill="#AC6199"></path> <g id="Group-15" transform="translate(34.000000, 0.000000)"> <mask id="mask-4" fill="white"> <use xlink:href="#path-3"></use> </mask> <g id="Clip-13"></g> <path d="M61.206,148.199 L16.93,120.759 L15.842,74.699 L36.014,66.01 L35.64,50.146 L4.319,63.648 C2.022,64.649 0.637,66.769 0.697,69.216 L1.972,123.211 C2.02,125.663 3.514,128.071 5.876,129.53 L57.772,161.701 C59.91,163.024 62.482,163.383 64.65,162.698 C64.872,162.628 65.088,162.546 65.297,162.452 L95.953,149.237 L80.709,139.791 L61.206,148.199" id="Fill-12" fill="#AC6199" mask="url(#mask-4)"></path> <path d="M118.133,137.748 L60.302,101.911 L58.88,41.761 L115.291,17.448 L173.116,53.272 L174.538,113.422 L118.133,137.748 Z M185.76,43.255 L119.219,2.011 C116.764,0.49 113.838,0.089 111.335,0.88 C111.089,0.958 110.848,1.047 110.611,1.148 L45.707,29.137 C43.078,30.271 41.497,32.686 41.563,35.49 L43.195,104.712 C43.26,107.516 44.968,110.27 47.664,111.941 L114.2,153.172 C116.646,154.687 119.573,155.099 122.061,154.313 C122.307,154.235 122.56,154.142 122.807,154.036 L187.717,126.059 C190.346,124.925 191.921,122.498 191.855,119.693 L190.23,50.484 C190.164,47.68 188.456,44.925 185.76,43.255 L185.76,43.255 Z" id="Fill-14" fill="#C04589" mask="url(#mask-4)"></path> </g> </g> </g>
</svg>